<svg width="180" height="180" viewBox="0 0 180 180" fill="none" xmlns="http://www.w3.org/2000/svg">
  <rect width="180" height="180" rx="45" fill="#2D3250"/>
  <g transform="scale(0.35) translate(0, 0)">
    <path d="M256 128C279.196 128 298 146.804 298 170C298 193.196 279.196 212 256 212C232.804 212 214 193.196 214 170C214 146.804 232.804 128 256 128Z" fill="#F4EEE0"/>
    <path d="M357 298C357 251.5 312.5 214 256 214C199.5 214 155 251.5 155 298C155 344.5 199.5 384 256 384C312.5 384 357 344.5 357 298Z" fill="#F4EEE0"/>
    <path d="M256 246C287.48 246 313 271.52 313 303C313 334.48 287.48 360 256 360C224.52 360 199 334.48 199 303C199 271.52 224.52 246 256 246Z" fill="#2D3250"/>
  </g>
</svg> 